<?xml version="1.0" standalone="no"?>
<!DOCTYPE svg PUBLIC "-//W3C//DTD SVG 20010904//EN"
 "http://www.w3.org/TR/2001/REC-SVG-20010904/DTD/svg10.dtd">
<svg version="1.0" xmlns="http://www.w3.org/2000/svg"
 width="500.000000pt" height="500.000000pt" viewBox="0 0 500.000000 500.000000"
 preserveAspectRatio="xMidYMid meet">
<metadata>
Created by potrace 1.14, written by Peter Selinger 2001-2017
</metadata>
<g transform="translate(0.000000,500.000000) scale(0.100000,-0.100000)"
fill="#000000" stroke="none">
<path d="M0 2500 l0 -2500 2500 0 2500 0 0 2500 0 2500 -2500 0 -2500 0 0
-2500z m2355 1715 c77 -206 142 -375 145 -375 3 0 69 169 145 375 l139 375
112 0 111 0 752 -2024 c414 -1113 755 -2033 758 -2045 5 -21 3 -21 -144 -21
l-149 0 -654 1733 c-359 952 -659 1743 -665 1755 -10 21 -24 -8 -129 -284
l-117 -307 532 -1431 c293 -787 534 -1439 537 -1449 4 -16 -8 -17 -146 -17
l-149 0 -90 238 c-50 130 -258 684 -464 1229 -206 546 -376 993 -379 993 -3 0
-160 -411 -349 -913 -189 -501 -398 -1055 -464 -1229 l-120 -318 -150 0 c-137
0 -149 1 -145 18 3 9 244 661 537 1448 l531 1432 -117 307 c-105 275 -118 304
-128 283 -7 -12 -306 -803 -665 -1755 l-654 -1733 -148 0 c-89 0 -148 4 -148
10 0 5 333 906 741 2002 408 1096 748 2012 756 2036 l15 42 112 0 112 0 139
-375z"/>
</g>
</svg>
